Coordinates
version=1
nRows=7
nColumns=63
inDegrees=yes

Units are S.I. units (second, meters, Newtons, ...)
If the header above contains a line with 'inDegrees', this indicates whether rotational values are in degrees (yes) or radians (no).

endheader
time	pelvis_tilt	pelvis_list	pelvis_rotation	pelvis_tx	pelvis_ty	pelvis_tz	hip_flexion_r	hip_adduction_r	hip_rotation_r	knee_angle_r	knee_angle_r_beta	ankle_angle_r	subtalar_angle_r	mtp_angle_r	hip_flexion_l	hip_adduction_l	hip_rotation_l	knee_angle_l	knee_angle_l_beta	ankle_angle_l	subtalar_angle_l	mtp_angle_l	L5_S1_Flex_Ext	L5_S1_Lat_Bending	L5_S1_axial_rotation	L4_L5_Flex_Ext	L4_L5_Lat_Bending	L4_L5_axial_rotation	L3_L4_Flex_Ext	L3_L4_Lat_Bending	L3_L4_axial_rotation	L2_L3_Flex_Ext	L2_L3_Lat_Bending	L2_L3_axial_rotation	L1_L2_Flex_Ext	L1_L2_Lat_Bending	L1_L2_axial_rotation	L1_T12_Flex_Ext	L1_T12_Lat_Bending	L1_T12_axial_rotation	Abs_r3	Abs_r2	Abs_r1	Abs_t1	Abs_t2	neck_flexion	neck_bending	neck_rotation	arm_flex_r	arm_add_r	arm_rot_r	elbow_flex_r	pro_sup_r	wrist_flex_r	wrist_dev_r	arm_flex_l	arm_add_l	arm_rot_l	elbow_flex_l	pro_sup_l	wrist_flex_l	wrist_dev_l
      0.00000000	     -3.59443891	     -3.44145754	     99.14922053	      0.16574775	      1.08891433	      0.49797457	      2.10894421	     -4.16339780	      1.37936189	      0.88516660	      0.01544907	     17.79274105	     -0.15421599	      0.00000000	      4.29550963	      3.47107433	     10.28371930	      4.15440081	      0.07250797	     11.22960646	     -9.37993283	      0.00000000	     -0.22064885	      0.22414674	      1.42955788	     -0.40976698	      0.29811516	      1.51890525	     -0.36250400	      0.54499038	      1.51890525	     -0.25217957	      0.54499038	      1.25086314	     -0.20489452	      0.45708003	      1.16151578	     -0.12607875	      0.34720330	      1.07216841	     -1.57607268	      2.53559275	      7.95077205	      0.00000000	      0.00000000	     21.24107924	     -5.21099644	    -12.89976641	      8.00744677	    -12.31675455	    125.71629719	      4.80404120	      2.23964955	     -0.68992571	     -4.78577139	     12.95018530	     -5.32018962	    171.10968516	      3.53466809	      5.26037791	    -11.68029534	     -5.87822940
      0.01694915	     -3.88707282	     -3.51626220	     98.31178263	      0.16678916	      1.08844944	      0.49706087	      2.10912892	     -4.41107394	      0.52482076	      0.87675698	      0.01530230	     18.98931105	      2.12606747	      0.00000000	      4.13696906	      3.72653224	      9.24640757	      4.02991395	      0.07033527	     11.94938702	     -8.52586280	      0.00000000	     -0.23264380	      0.17008004	      1.58631465	     -0.43204279	      0.22620646	      1.68545932	     -0.38221049	      0.41353261	      1.68545932	     -0.26588859	      0.41353261	      1.38802532	     -0.21603303	      0.34682722	      1.28888065	     -0.13293266	      0.26345398	      1.18973599	     -1.66175137	      1.92397945	      8.82260620	      0.00000000	      0.00000000	     21.63157690	     -5.03502207	    -13.70329605	      7.96183020	    -12.37054754	    121.36302690	      5.44447530	      2.13818255	     -0.38457566	     -4.79215148	     12.52323460	     -5.61773178	    171.40513780	      2.74431819	      4.76228888	    -11.57536391	     -5.53073510
      0.03389831	     -4.08805305	     -3.62241282	     97.61788944	      0.16748301	      1.08811513	      0.49685496	      2.25392356	     -4.62288024	     -1.22565865	      0.97756300	      0.01706169	     19.98508757	      5.56113904	      0.00000000	      4.17820708	      3.88059131	      7.26953109	      4.09827595	      0.07152841	     12.87074985	     -6.27549384	      0.00000000	     -0.23671477	      0.13785183	      1.71522326	     -0.43960299	      0.18334293	      1.82242472	     -0.38889869	      0.33517293	      1.82242472	     -0.27054131	      0.33517293	      1.50082035	     -0.21981333	      0.28110745	      1.39361890	     -0.13525882	      0.21353248	      1.28641745	     -1.69082990	      1.55940745	      9.53955722	      0.00000000	      0.00000000	     21.92382852	     -4.94152913	    -14.04768278	      7.97718092	    -12.45955696	    118.60916555	      5.85706703	      2.15358607	     -0.17454302	     -4.83713959	     12.33290514	     -5.72040979	    172.43443696	      2.18256163	      4.50444686	    -11.73653204	     -5.37221067
      0.05084746	     -4.17198165	     -3.66178629	     97.20897926	      0.16776537	      1.08799397	      0.49668525	      2.34882501	     -4.72989982	     -4.02672004	      1.14385099	      0.01996397	     20.78807978	      9.87955316	      0.00000000	      4.18127811	      3.96453814	      6.20623372	      4.17261112	      0.07282580	     13.31047736	     -5.32412179	      0.00000000	     -0.23542169	      0.12746787	      1.80348684	     -0.43720162	      0.16953227	      1.91620477	     -0.38677430	      0.30992539	      1.91620477	     -0.26906345	      0.30992539	      1.57805099	     -0.21861258	      0.25993249	      1.46533306	     -0.13451995	      0.19744774	      1.35261513	     -1.68159361	      1.44194209	     10.03045277	      0.00000000	      0.00000000	     21.96289304	     -5.02702080	    -14.26015621	      7.91717282	    -12.52069898	    117.10275560	      6.01939569	      2.11610579	     -0.05417468	     -4.87075477	     12.26529455	     -5.70278486	    173.32036565	      1.84686397	      4.73322661	    -12.10685272	     -5.46799859
      0.06779661	     -4.19012234	     -3.67090150	     96.79990187	      0.16802579	      1.08796529	      0.49671247	      2.38017930	     -4.73178106	     -4.20758490	      1.15164587	      0.02010001	     20.84892774	     10.58741673	      0.00000000	      4.16463470	      3.98525887	      5.24824319	      4.20596395	      0.07340792	     13.52922892	     -4.73428121	      0.00000000	     -0.23715079	      0.13105714	      1.89219626	     -0.44041273	      0.17430600	      2.01045853	     -0.38961503	      0.31865234	      2.01045853	     -0.27103964	      0.31865234	      1.65567173	     -0.22021822	      0.26725173	      1.53740946	     -0.13550796	      0.20300752	      1.41914720	     -1.69394437	      1.48254462	     10.52382795	      0.00000000	      0.00000000	     21.97927718	     -5.16662877	    -14.33806192	      7.90668247	    -12.65361406	    116.04346392	      6.20511240	      2.14144110	      0.03558068	     -4.95374413	     12.31411692	     -5.60267005	    174.95165511	      1.61050842	      4.74018790	    -12.63787331	     -5.71347364
      0.08474576	     -4.19141622	     -3.69833187	     96.64758749	      0.16802045	      1.08799328	      0.49695486	      2.39941206	     -4.72909499	     -4.41568521	      1.13277651	      0.01977068	     20.75010363	     11.01237575	      0.00000000	      4.22392179	      3.99559034	      4.33325057	      4.28745510	      0.07483021	     13.72442557	     -3.92696935	      0.00000000	     -0.23394365	      0.13831961	      1.92938774	     -0.43445675	      0.18396508	      2.04997447	     -0.38434602	      0.33631029	      2.04997447	     -0.26737419	      0.33631029	      1.68821427	     -0.21724007	      0.28206134	      1.56762754	     -0.13367540	      0.21425707	      1.44704080	     -1.67103608	      1.56469904	     10.73067579	      0.00000000	      0.00000000	     21.94868723	     -5.24747256	    -14.13318110	      7.92500313	    -12.71578244	    115.88259658	      6.23182489	      2.12052081	      0.08189464	     -4.97988040	     12.40650501	     -5.46786891	    176.08950940	      1.48251529	      5.27980679	    -13.36273215	     -5.98255433
      0.10169492	     -4.16757812	     -3.74142507	     96.40591048	      0.16822215	      1.08799396	      0.49740323	      2.51413262	     -4.70736238	     -4.94972114	      1.19962544	      0.02093741	     20.66817282	     11.98392678	      0.00000000	      4.37991529	      3.91551518	      2.21812878	      4.47587115	      0.07811869	     14.34368861	     -1.47061377	      0.00000000	     -0.23519162	      0.14886660	      1.97638609	     -0.43677436	      0.19799258	      2.09991022	     -0.38639631	      0.36195425	      2.09991022	     -0.26880050	      0.36195425	      1.72933783	     -0.21839894	      0.30356877	      1.60581370	     -0.13438849	      0.23059436	      1.48228957	     -1.67995022	      1.68400876	     10.99206653	      0.00000000	      0.00000000	     22.00512253	     -5.34102568	    -13.80836869	      7.97040704	    -12.66415709	    117.48705408	      5.79114847	      1.98257212	      0.39935420	     -5.07422452	     12.52403429	     -5.33365772	    176.50061966	      1.40051422	      6.00210662	    -13.88230997	     -6.28964040
